<svg viewBox="0 0 23 24">
   <path d="M9.40720413,22.7499458 L9.40720413,15.0154938 L6.20799301,15.0154938 L6.20799301,11.3749729 L9.40720413,11.3749729 L9.40720413,8.60030985 C9.40720413,5.44424285 11.2861059,3.70092273 14.1638685,3.70092273 C15.5420505,3.70092273 16.9832626,3.94669545 16.9832626,3.94669545 L16.9832626,7.04434432 L15.3953109,7.04434432 C13.8307661,7.04434432 13.3427416,8.01528546 13.3427416,9.01112125 L13.3427416,11.3749729 L16.8354816,11.3749729 L16.2768891,15.0154938 L13.3427416,15.0154938 L13.3427416,22.7499458 L20.3124516,22.7499458 C21.6579531,22.7499458 22.7499458,21.6579531 22.7499458,20.3124516 L22.7499458,2.43749419 C22.7499458,1.09199264 21.6579531,0 20.3124516,0 L2.43749419,0 C1.09199264,0 0,1.09199264 0,2.43749419 L0,20.3124516 C0,21.6579531 1.09199264,22.7499458 2.43749419,22.7499458 L9.40720413,22.7499458 Z"></path>
</svg>