<svg viewBox="0 0 23 24">
    <path d="M21.1249496,23.6249961 C22.0186777,23.6249961 22.7499458,22.8886698 22.7499458,21.9847756 L22.7499458,2.51527091 C22.7499458,1.61137674 22.0186777,0.875050366 21.1249496,0.875050366 L1.61993785,0.875050366 C0.726160225,0.875050366 0,1.61137674 0,2.51527091 L0,21.9847756 C0,22.8886698 0.726160225,23.6249961 1.61993785,23.6249961 L21.1249496,23.6249961 Z M5.18984129,8.03518954 C4.10821317,8.03518954 3.23476783,7.15668593 3.23476783,6.08011608 C3.23476783,5.00354623 4.10821317,4.12504262 5.18984129,4.12504262 C6.26641115,4.12504262 7.14491476,5.00354623 7.14491476,6.08011608 C7.14491476,7.16174421 6.27146942,8.03518954 5.18984129,8.03518954 Z M12.3652049,20.3750039 L8.9933181,20.3750039 L8.9933181,9.51800843 L12.2280859,9.51800843 L12.2280859,11.0008273 L12.2738088,11.0008273 C12.7257311,10.1476647 13.8276915,9.24887836 15.467912,9.24887836 C18.8804138,9.24887836 19.5151779,11.4984725 19.5151779,14.4234456 L19.5151779,20.3750039 L16.1433407,20.3750039 L16.1433407,15.0937665 C16.1433407,13.8344044 16.1179502,12.2144665 14.3913918,12.2144665 C12.634335,12.2144665 12.3652049,13.585557 12.3652049,15.0023704 L12.3652049,20.3750039 Z M6.88084297,20.3750039 L3.5038979,20.3750039 L3.5038979,9.51800843 L6.88084297,9.51800843 L6.88084297,20.3750039 Z"></path>
</svg>